<svg data-name="Слой 1" id="Слой_1" viewBox="0 0 2891.62 1548.83" xmlns="http://www.w3.org/2000/svg">
    <defs>
        <style>
            .cls-1{fill:#ebf3fa;}.cls-2{opacity:0.5;}.cls-3{fill:#c8dbf4;}.cls-4{fill:#d2e3fc;}.cls-5{fill:#95c0f4;}.cls-6{fill:#b7d3f3;}.cls-7{fill:#c1d9f4;}.cls-8{fill:#e4eef9;}.cls-9{fill:#afcdfb;}.cls-10{fill:#c0d8fb;}.cls-11{fill:#dfebfd;}.cls-12{fill:#cde0fb;}.cls-13{fill:#fcecdb;}.cls-14{fill:#b5453c;}.cls-15{fill:#f4d2b8;}.cls-16{fill:#2b478b;}.cls-17{fill:#699dee;}.cls-18{fill:#568cdb;}.cls-19{fill:#7eb2fc;}.cls-20{fill:#f99746;}.cls-21{fill:#ed7d2b;}.cls-22{fill:#2e3552;}.cls-23{fill:#f4a269;}.cls-24{fill:#ffb27d;}.cls-25{fill:#c65447;}.cls-26{fill:#163560;}.cls-27{fill:#1c468a;}.cls-28{fill:#2c3a64;}.cls-29{fill:#efdece;}.cls-30{fill:#ed985f;}.cls-31{fill:#233862;}.cls-32{fill:#fff;}.cls-33{fill:#dd6d22;}.cls-34{fill:#ebeef2;}
        </style>
    </defs>
    <path class="cls-1"
        d="M339.38,1763.36l905.31-4.17,241.32-.06,79.94,0,241.78-.06,1104.58-.27s252.65-287.51-17.23-560.58c-279.81-283.12-415.86-52.54-501.87-451.07C2176.71-256,36.23,327.83,597.66,1181.47,799.81,1488.84,199.74,1325.47,339.38,1763.36Z"
        transform="translate(-191.96 -218.63)" />
    <g class="cls-2">
        <path class="cls-3"
            d="M1939.91,1759.27H698.8V686.79a86,86,0,0,1,85.88-85.88H1867.83A72.17,72.17,0,0,1,1939.91,673ZM718.32,1739.75H1920.39V673a52.62,52.62,0,0,0-52.56-52.56H784.68a66.43,66.43,0,0,0-66.36,66.35Z"
            transform="translate(-191.96 -218.63)" />
        <rect class="cls-3" height="21.71" width="1221.59" x="516.6" y="607.14" />
        <rect class="cls-3" height="21.71" width="1221.59" x="516.6" y="781.95" />
        <rect class="cls-3" height="21.71" width="1221.59" x="516.6" y="956.76" />
        <rect class="cls-3" height="21.71" width="1221.59" x="516.6" y="1132.21" />
        <rect class="cls-3" height="113.52" transform="translate(1788.57 2369.52) rotate(180)" width="30.51" x="975.01"
            y="1237.32" />
        <rect class="cls-3" height="123.38" transform="translate(1717.39 2359.66) rotate(180)" width="26.43" x="941.46"
            y="1227.45" />
        <rect class="cls-4" height="123.38" transform="translate(1486.38 2461.94) rotate(-173.03)" width="26.43"
            x="907.63" y="1227.45" />
        <rect class="cls-3" height="113.52" transform="translate(3493.27 2369.52) rotate(180)" width="30.5" x="1827.36"
            y="1237.32" />
        <rect class="cls-3" height="123.38" transform="translate(3422.1 2359.66) rotate(180)" width="26.43" x="1793.81"
            y="1227.45" />
        <rect class="cls-4" height="123.38" transform="translate(3184.77 2565.44) rotate(-173.03)" width="26.43"
            x="1759.98" y="1227.45" />
        <rect class="cls-5" height="22.2" transform="translate(1435.85 2460.84) rotate(180)" width="124.73" x="751.54"
            y="1328.63" />
        <rect class="cls-6" height="15.27" transform="translate(1405.35 2423.37) rotate(180)" width="124.73" x="736.29"
            y="1313.37" />
        <rect class="cls-4" height="15.27" transform="translate(1424.73 2392.84) rotate(180)" width="119.59" x="748.55"
            y="1298.1" />
        <rect class="cls-3" height="11.66" transform="translate(1407.35 2365.91) rotate(180)" width="108" x="745.66"
            y="1286.44" />
        <rect class="cls-4" height="22.2" transform="translate(2633.27 2460.84) rotate(180)" width="124.73" x="1350.25"
            y="1328.63" />
        <rect class="cls-6" height="15.27" transform="translate(2602.77 2423.37) rotate(180)" width="124.73" x="1335"
            y="1313.37" />
        <rect class="cls-4" height="15.27" transform="translate(2622.15 2392.84) rotate(180)" width="119.59" x="1347.26"
            y="1298.1" />
        <rect class="cls-3" height="11.66" transform="translate(2604.77 2365.91) rotate(180)" width="108" x="1344.37"
            y="1286.44" />
        <rect class="cls-6" height="15.27" transform="translate(2594.55 2338.99) rotate(180)" width="124.73" x="1330.89"
            y="1271.17" />
        <rect class="cls-4" height="15.27" transform="translate(2613.94 2308.45) rotate(180)" width="119.59" x="1343.15"
            y="1255.91" />
        <rect class="cls-3" height="11.66" transform="translate(2596.56 2281.53) rotate(180)" width="108" x="1340.26"
            y="1244.25" />
        <rect class="cls-7" height="122.89" transform="translate(2342.8 2359.17) rotate(180)" width="21.26" x="1256.75"
            y="1227.45" />
        <rect class="cls-7" height="128.52" transform="translate(2865.73 2353.54) rotate(180)" width="21.26" x="1518.21"
            y="1221.82" />
        <rect class="cls-7" height="122.89" transform="translate(2994.55 2359.17) rotate(180)" width="21.26" x="1582.62"
            y="1227.45" />
        <rect class="cls-8" height="133.03" transform="translate(2294.66 2349.04) rotate(180)" width="26.87" x="1229.87"
            y="1217.32" />
        <rect class="cls-8" height="133.03" transform="translate(3051.54 2349.04) rotate(180)" width="26.87" x="1608.32"
            y="1217.32" />
        <rect class="cls-6" height="126.69" transform="translate(2240.92 2355.38) rotate(180)" width="26.87" x="1203"
            y="1223.66" />
        <rect class="cls-6" height="143.76" transform="translate(2965.13 2062.32) rotate(170.1)" width="26.87"
            x="1466.31" y="1205.34" />
        <rect class="cls-3" height="107.26" transform="translate(2187.17 2374.8) rotate(180)" width="26.87" x="1176.13"
            y="1243.09" />
        <rect class="cls-3" height="107.26" transform="translate(3121.87 2374.8) rotate(180)" width="26.87" x="1643.48"
            y="1243.09" />
        <rect class="cls-5" height="113.03" transform="translate(2133.43 2369.03) rotate(180)" width="26.87" x="1149.26"
            y="1237.32" />
        <rect class="cls-4" height="113.03" transform="translate(2071.09 2369.03) rotate(180)" width="26.87" x="1118.09"
            y="1237.32" />
        <rect class="cls-4" height="113.03" transform="translate(3183.08 2369.03) rotate(180)" width="26.87" x="1674.08"
            y="1237.32" />
        <rect class="cls-9" height="122.89" transform="translate(2007.3 2359.17) rotate(180)" width="26.87" x="1086.19"
            y="1227.45" />
        <rect class="cls-9" height="122.89" transform="translate(2940.95 2359.17) rotate(180)" width="26.87" x="1553.02"
            y="1227.45" />
        <rect class="cls-3" height="113.52" width="30.51" x="1396.68" y="494.11" />
        <rect class="cls-3" height="123.38" width="26.43" x="1434.3" y="484.25" />
        <rect class="cls-4" height="123.38" transform="translate(-272.42 -9.78) rotate(-6.97)" width="26.43" x="1660.09"
            y="702.88" />
        <rect class="cls-3" height="113.52" width="30.51" x="905.77" y="668.45" />
        <rect class="cls-3" height="123.38" width="26.43" x="943.39" y="658.58" />
        <rect class="cls-4" height="123.38" transform="translate(-297.24 -68.08) rotate(-6.98)" width="26.43"
            x="1169.18" y="877.21" />
        <rect class="cls-3" height="113.52" width="30.51" x="544.33" y="494.11" />
        <rect class="cls-3" height="123.38" width="26.43" x="581.95" y="484.25" />
        <rect class="cls-4" height="123.38" transform="translate(-278.73 -113.28) rotate(-6.97)" width="26.43"
            x="807.74" y="702.88" />
        <rect class="cls-5" height="22.2" width="124.73" x="1525.92" y="585.43" />
        <rect class="cls-6" height="15.27" width="124.73" x="1541.17" y="570.17" />
        <rect class="cls-4" height="15.27" width="119.59" x="1534.06" y="554.9" />
        <rect class="cls-3" height="11.66" width="108" x="1548.54" y="543.24" />
        <rect class="cls-4" height="22.2" width="124.73" x="927.21" y="585.43" />
        <rect class="cls-6" height="15.27" width="124.73" x="942.46" y="570.17" />
        <rect class="cls-4" height="15.27" width="119.59" x="935.35" y="554.9" />
        <rect class="cls-3" height="11.66" width="108" x="949.83" y="543.24" />
        <rect class="cls-6" height="15.27" width="124.73" x="946.57" y="527.97" />
        <rect class="cls-4" height="15.27" width="119.59" x="939.45" y="512.71" />
        <rect class="cls-3" height="11.66" width="108" x="953.94" y="501.05" />
        <rect class="cls-7" height="122.89" width="21.26" x="1124.19" y="484.25" />
        <rect class="cls-7" height="128.52" width="21.26" x="862.72" y="478.62" />
        <rect class="cls-7" height="122.89" width="21.26" x="798.31" y="484.25" />
        <rect class="cls-8" height="133.03" width="26.87" x="1145.45" y="474.12" />
        <rect class="cls-8" height="133.03" width="26.87" x="767.01" y="474.12" />
        <rect class="cls-6" height="126.69" width="26.87" x="1172.32" y="480.46" />
        <rect class="cls-6" height="143.76" transform="translate(-45.93 -399.06) rotate(9.9)" width="26.87" x="1100.97"
            y="680.77" />
        <rect class="cls-4" height="22.2" width="124.73" x="1317.63" y="759.75" />
        <rect class="cls-6" height="15.27" width="124.73" x="1332.88" y="744.48" />
        <rect class="cls-4" height="15.27" width="119.59" x="1325.76" y="729.22" />
        <rect class="cls-3" height="11.66" width="108" x="1340.25" y="717.56" />
        <rect class="cls-6" height="15.27" width="124.73" x="1336.99" y="702.29" />
        <rect class="cls-4" height="15.27" width="119.59" x="1329.87" y="687.02" />
        <rect class="cls-3" height="11.66" width="108" x="1344.35" y="675.36" />
        <rect class="cls-6" height="143.76" transform="matrix(0.99, 0.17, -0.17, 0.99, -10.14, -463.6)" width="26.87"
            x="1491.39" y="855.09" />
        <rect class="cls-3" height="107.26" width="26.87" x="1199.19" y="499.88" />
        <rect class="cls-3" height="107.26" width="26.87" x="731.85" y="499.88" />
        <rect class="cls-5" height="113.03" width="26.87" x="1226.07" y="494.11" />
        <rect class="cls-4" height="113.03" width="26.87" x="1257.23" y="494.11" />
        <rect class="cls-4" height="113.03" width="26.87" x="701.24" y="494.11" />
        <rect class="cls-8" height="133.03" width="26.87" x="1217.56" y="648.93" />
        <rect class="cls-3" height="107.26" width="26.87" x="1182.4" y="674.69" />
        <rect class="cls-4" height="113.03" width="26.87" x="1151.79" y="668.92" />
        <rect class="cls-4" height="113.03" width="26.87" x="1061.98" y="668.92" />
        <rect class="cls-4" height="113.03" width="26.87" x="1024.48" y="668.92" />
        <rect class="cls-8" height="133.03" width="26.87" x="601.4" y="648.93" />
        <rect class="cls-8" height="133.03" transform="translate(-299.19 -109.47) rotate(-6.98)" width="26.87"
            x="828.26" y="867.56" />
        <rect class="cls-3" height="107.26" width="26.87" x="566.24" y="674.69" />
        <rect class="cls-4" height="113.03" width="26.87" x="535.63" y="668.92" />
        <rect class="cls-9" height="122.89" width="26.87" x="1289.13" y="484.25" />
        <rect class="cls-7" height="122.89" width="21.26" x="1002.7" y="833.87" />
        <rect class="cls-8" height="133.03" width="26.87" x="1023.96" y="823.73" />
        <rect class="cls-6" height="126.69" width="26.87" x="1050.84" y="830.07" />
        <rect class="cls-3" height="107.26" width="26.87" x="1077.71" y="849.5" />
        <rect class="cls-5" height="113.03" width="26.87" x="1104.58" y="843.73" />
        <rect class="cls-4" height="113.03" width="26.87" x="1135.75" y="843.73" />
        <rect class="cls-9" height="122.89" width="26.87" x="1167.65" y="833.87" />
        <rect class="cls-9" height="122.89" width="26.87" x="1489.27" y="659.06" />
        <rect class="cls-9" height="122.89" width="26.87" x="1518.54" y="659.06" />
        <rect class="cls-9" height="122.89" width="26.87" x="822.3" y="484.25" />
        <rect class="cls-4" height="22.2" width="124.73" x="1455.36" y="935.1" />
        <rect class="cls-6" height="15.27" width="124.73" x="1470.61" y="919.84" />
        <rect class="cls-4" height="15.27" width="119.59" x="1463.49" y="904.57" />
        <rect class="cls-3" height="11.66" width="108" x="1477.98" y="892.91" />
        <rect class="cls-6" height="15.27" width="124.73" x="1474.72" y="877.64" />
        <rect class="cls-4" height="15.27" width="119.59" x="1467.6" y="862.38" />
        <rect class="cls-3" height="11.66" width="108" x="1482.08" y="850.72" />
        <rect class="cls-7" height="128.52" width="21.26" x="1390.87" y="828.29" />
        <rect class="cls-7" height="122.89" width="21.26" x="1326.45" y="833.92" />
        <rect class="cls-8" height="133.03" width="26.87" x="1295.15" y="823.79" />
        <rect class="cls-6" height="143.76" transform="translate(22.06 -484.66) rotate(9.9)" width="26.87" x="1629.12"
            y="1030.44" />
        <rect class="cls-3" height="107.26" width="26.87" x="1259.99" y="849.56" />
        <rect class="cls-4" height="113.03" width="26.87" x="1229.39" y="843.78" />
        <rect class="cls-8" height="133.03" width="26.87" x="946.66" y="823.79" />
        <rect class="cls-3" height="107.26" width="26.87" x="911.5" y="849.56" />
        <rect class="cls-4" height="113.03" width="26.87" x="880.89" y="843.78" />
        <rect class="cls-8" height="133.03" width="26.87" x="839.02" y="823.79" />
        <rect class="cls-3" height="107.26" width="26.87" x="803.86" y="849.56" />
        <rect class="cls-4" height="113.03" width="26.87" x="773.25" y="843.78" />
        <rect class="cls-9" height="122.89" width="26.87" x="1350.45" y="833.92" />
    </g>
    <rect class="cls-10" height="178.59" rx="13.17" width="184.08" x="1871.92" y="400.84" />
    <rect class="cls-11" height="163.12" rx="12.03" width="168.13" x="1879.89" y="408.58" />
    <path class="cls-6" d="M2152.11,643.51a3.81,3.81,0,1,1,3.81,3.81A3.82,3.82,0,0,1,2152.11,643.51Z"
        transform="translate(-191.96 -218.63)" />
    <path class="cls-6" d="M2182.88,648.9a3.81,3.81,0,1,1,1.48,5.18A3.8,3.8,0,0,1,2182.88,648.9Z"
        transform="translate(-191.96 -218.63)" />
    <path class="cls-6" d="M2209.24,669.84a3.81,3.81,0,1,1-1.14,5.27A3.81,3.81,0,0,1,2209.24,669.84Z"
        transform="translate(-191.96 -218.63)" />
    <path class="cls-6" d="M2222.29,702.25a3.82,3.82,0,1,1-3.81,3.82A3.82,3.82,0,0,1,2222.29,702.25Z"
        transform="translate(-191.96 -218.63)" />
    <path class="cls-6" d="M2215.63,739.87a3.81,3.81,0,1,1-5.39,0A3.81,3.81,0,0,1,2215.63,739.87Z"
        transform="translate(-191.96 -218.63)" />
    <circle class="cls-6" cx="1997.03" cy="547.95" r="3.81" />
    <path class="cls-6" d="M2152.11,776.25a3.81,3.81,0,1,1,3.81,3.82A3.82,3.82,0,0,1,2152.11,776.25Z"
        transform="translate(-191.96 -218.63)" />
    <path class="cls-6" d="M2128.84,648.9a3.81,3.81,0,1,0-1.48,5.18A3.8,3.8,0,0,0,2128.84,648.9Z"
        transform="translate(-191.96 -218.63)" />
    <path class="cls-6" d="M2102.48,669.84a3.81,3.81,0,1,0,1.14,5.27A3.81,3.81,0,0,0,2102.48,669.84Z"
        transform="translate(-191.96 -218.63)" />
    <path class="cls-6" d="M2089.43,702.25a3.82,3.82,0,1,0,3.81,3.82A3.82,3.82,0,0,0,2089.43,702.25Z"
        transform="translate(-191.96 -218.63)" />
    <path class="cls-6" d="M2096.09,739.87a3.81,3.81,0,1,0,5.4,0A3.81,3.81,0,0,0,2096.09,739.87Z"
        transform="translate(-191.96 -218.63)" />
    <circle class="cls-6" cx="1930.77" cy="547.95" r="3.81" />
    <path class="cls-6" d="M2154.89,706.07a3.82,3.82,0,1,1,3.82,3.81A3.82,3.82,0,0,1,2154.89,706.07Z"
        transform="translate(-191.96 -218.63)" />
    <rect class="cls-6" height="47.64" width="1.04" x="1966.23" y="439.8" />
    <rect class="cls-6" height="3.12" transform="translate(-158.51 1270.34) rotate(-38.13)" width="32.11" x="2154.8"
        y="694.53" />
    <path class="cls-12" d="M2439,1644s174.43-165.91,223.38-127.34S2439,1644,2439,1644Z"
        transform="translate(-191.96 -218.63)" />
    <path class="cls-12"
        d="M2426.39,1675.94s324.54-145.29,401.33-68.47-89.06,67.34-150.47,58.75S2426.39,1675.94,2426.39,1675.94Z"
        transform="translate(-191.96 -218.63)" />
    <path class="cls-12"
        d="M2412.76,1640.38s1.53-8.17,3.61-20.13c4.06-23.33,10.23-61.07,11.31-80.73,1.64-29.74,25.55-50.86,51.81-20.58s-56.63,113.28-56.63,113.28Z"
        transform="translate(-191.96 -218.63)" />
    <path class="cls-11"
        d="M2504.84,1072.33c-23.75-62.14-129.54-31.31-129.54-31.31s-61.94,119.18-83,124,33-112.24,33-112.24c-41.66.17-141.71,61.34-141.71,61.34s19.8,129.77-1.76,129.25-11.67-115.79-11.67-115.79c-38.72,16-71.29,66.34-71.29,66.34-38.94,80.56,66.51,126.4,66.51,126.4s5.9,45.12-16.82,99.84h0s-5.35,10.22-10.12,27.16l10.89-1.1q.89-4.51,2.1-8.75s0,0,0,0l0-.12c.58-1.76,1.41-4.26,2.45-7.31h0c2.67-6.85,4.43-11.89,5.51-15.5v0c7.91-21.45,19.58-49.52,28.59-56.07a21.27,21.27,0,0,1-2.83-4.76l2.83,4.76c22.66,38.05,116.5,35.32,167.33,19.44s26.73-28.24-3.61-49.19-88.28-8.78-106.52-16.35,6.11-19.44,41-20.26,55.67,32,112.1,31.72S2486.84,1214,2486.84,1214c-37.39,15.87-108.74,1.55-112.75-11.49s98.62-22,114.19-27.64S2528.58,1134.48,2504.84,1072.33Z"
        transform="translate(-191.96 -218.63)" />
    <path class="cls-12"
        d="M799.75,1621.07c-48.87-59.76,43.2-148.49,43.2-148.49s155.73,6.4,172.7-12-132.07-31.47-132.07-31.47c24.2-41.85,143.51-107.29,143.51-107.29s119.23,94.8,131.15,72.79-109.85-78.55-109.85-78.55c38.45-29.75,107.92-33.51,107.92-33.51,103.58,7.28,88.89,139.9,88.89,139.9s42,32,110.23,40.66h0s13.37.52,33.18,5.48l-7.39,10.33q-5.06-1.71-10-2.93h-.06l-.14,0c-2.11-.44-5.1-1-8.78-1.76h0c-8.43-1.26-14.52-2.4-18.77-3.4h0c-26.15-4.41-61.15-8.86-72.94-3.57a24.46,24.46,0,0,0-3.16-5.59l3.16,5.59c25.23,44.77-31.66,137.67-77,179.69s-43.86,10.62-47.44-32,42.09-93.94,45-116.67-23.09-5.07-44,29.57.14,74.52-32.73,131.16-161.52,25.72-161.52,25.72c37.55-28.49,64.3-108.59,53.48-120.15s-79.08,86.57-93.71,99S848.62,1680.82,799.75,1621.07Z"
        transform="translate(-191.96 -218.63)" />
    <path class="cls-13"
        d="M1015.38,1140.33H1512a83.21,83.21,0,0,1,83.21,83.21v73.75a85.1,85.1,0,0,1-85.1,85.1H1015.38a0,0,0,0,1,0,0V1140.33a0,0,0,0,1,0,0Z" />
    <path class="cls-14"
        d="M2219.55,1458.55V1495a134.81,134.81,0,0,1-10.63,53.34c-13.58,31.52-38.85,52.71-67.77,52.71H1191.81c-6.28,0-11.37-6.89-11.37-15.37v-5.45c0-8.49,5.09-15.38,11.37-15.38h562.47a26,26,0,0,0,24.3-16.33l.06-.18a127,127,0,0,0,8.49-46.27v-46.3a128.22,128.22,0,0,0-2.35-24.63c0-.13,0-.27-.07-.4a44.4,44.4,0,0,0-43.65-35.54H1191.81c-6.28,0-11.37-6.89-11.37-15.39v-5.44c0-8.5,5.09-15.38,11.37-15.38h954.12c33.62,0,62,30.49,70.78,72.15A132.34,132.34,0,0,1,2219.55,1458.55Z"
        transform="translate(-191.96 -218.63)" />
    <polygon class="cls-15" points="1015.38 1261.36 1085.67 1265.43 1015.38 1267.88 1015.38 1261.36" />
    <polygon class="cls-15" points="1015.38 1299.34 1182.61 1303.41 1015.38 1305.86 1015.38 1299.34" />
    <path class="cls-13"
        d="M1078.82,741.7h410.44a69.5,69.5,0,0,1,69.5,69.5v63.41a71.08,71.08,0,0,1-71.08,71.08H1078.82a0,0,0,0,1,0,0v-204A0,0,0,0,1,1078.82,741.7Z" />
    <path class="cls-9"
        d="M2108.67,1044.26V1075a115.51,115.51,0,0,1-8.8,45c-11.25,26.56-32.16,44.42-56.1,44.42H1257.92c-5.2,0-9.41-5.81-9.41-13v-4.59c0-7.15,4.21-13,9.41-13H1737a90.4,90.4,0,0,0,6.72-13.91,108.67,108.67,0,0,0,7-39v-39a110.29,110.29,0,0,0-1.94-20.76,95.93,95.93,0,0,0-11.1-30.3H1257.92c-5.2,0-9.41-5.8-9.41-13V973.3c0-7.17,4.21-13,9.41-13h789.81c27.83,0,51.3,25.7,58.59,60.81A113.57,113.57,0,0,1,2108.67,1044.26Z"
        transform="translate(-191.96 -218.63)" />
    <polygon class="cls-15" points="1078.82 843.7 1137 847.13 1078.82 849.2 1078.82 843.7" />
    <polygon class="cls-15" points="1078.82 875.71 1217.25 879.14 1078.82 881.2 1078.82 875.71" />
    <path class="cls-16"
        d="M1242.46,1600.59h564.17a78.6,78.6,0,0,1,78.6,78.6v6.26a73.81,73.81,0,0,1-73.81,73.81h-569a0,0,0,0,1,0,0V1600.59A0,0,0,0,1,1242.46,1600.59Z"
        transform="translate(2935.73 3141.23) rotate(180)" />
    <path class="cls-13"
        d="M1778.95,1600.59h642.58a76.75,76.75,0,0,1,76.75,76.75v6.88a75,75,0,0,1-75,75H1778.95a0,0,0,0,1,0,0V1600.59A0,0,0,0,1,1778.95,1600.59Z"
        transform="translate(4085.27 3141.23) rotate(-180)" />
    <rect class="cls-16" height="23.73" rx="11.4" transform="translate(4064.58 3276.18) rotate(180)" width="806.75"
        x="1724.89" y="1735.54" />
    <rect class="cls-16" height="23.73" rx="11.4" transform="translate(4064.58 3006.29) rotate(-180)" width="806.75"
        x="1724.89" y="1600.59" />
    <polygon class="cls-15" points="2306.32 1461.3 2219.11 1463.97 2306.32 1465.58 2306.32 1461.3" />
    <polygon class="cls-15" points="2306.32 1424.79 2098.84 1427.45 2306.32 1429.06 2306.32 1424.79" />
    <path class="cls-17"
        d="M2292.94,1645.55s8.89,6.82,11.83,18a27.79,27.79,0,0,1,.92,6.26c.49,14.89,0,48.59,0,48.59l26.25-16.85,26.19,16.85v-45.67c0-8.64-2.25-17-6.42-22.54-2-2.66-4.48-4.67-7.25-4.67Z"
        transform="translate(-191.96 -218.63)" />
    <path class="cls-18" d="M2292.94,1645.55s8.89,6.82,11.83,18l52.61.66s-2.07-16-12.92-18.69Z"
        transform="translate(-191.96 -218.63)" />
    <path class="cls-13"
        d="M1602.55,1164.33H2238.8a85.12,85.12,0,0,1,85.12,85.12v26.28a83.23,83.23,0,0,1-83.23,83.23H1602.55a0,0,0,0,1,0,0V1164.33A0,0,0,0,1,1602.55,1164.33Z"
        transform="translate(3734.52 2304.65) rotate(180)" />
    <path class="cls-19"
        d="M1602.2,1239.84v41.9a40.91,40.91,0,0,0,4.42,18.14c5,10,13.86,18.25,25,23.57a67.82,67.82,0,0,0,29,6.39h682.23c8,0,14.47,5.41,14.47,12.09v4.94c0,6.67-6.48,12.09-14.47,12.09H1164.35c-33.83,0-63.7-14-81.76-35.51-11.38-13.53-18.06-30-18.06-47.83v-33a67.43,67.43,0,0,1,9.31-34c15.15-26.17,47.26-44.22,84.41-44.22H2342.91c8,0,14.47,5.4,14.47,12.08v4.94c0,6.67-6.48,12.09-14.47,12.09H1658.59c-16.35,0-31.15,5.81-41.49,15.11a47.12,47.12,0,0,0-10.68,13.85A39.76,39.76,0,0,0,1602.2,1239.84Z"
        transform="translate(-191.96 -218.63)" />
    <polygon class="cls-15" points="2131.96 1043.01 2044.51 1046.28 2131.96 1048.25 2131.96 1043.01" />
    <polygon class="cls-15" points="2131.96 998.22 1923.89 1001.49 2131.96 1003.46 2131.96 998.22" />
    <path class="cls-20"
        d="M2118,1219.47s13.73,6.17,18.28,16.32a15.84,15.84,0,0,1,1.42,5.67c.76,13.48,0,44,0,44l40.54-15.26,40.44,15.26V1244.1a25.69,25.69,0,0,0-9.91-20.4,18.43,18.43,0,0,0-11.2-4.23Z"
        transform="translate(-191.96 -218.63)" />
    <path class="cls-21" d="M2118,1219.47s13.73,6.17,18.28,16.32l81.24.6s-3.19-14.52-19.95-16.92Z"
        transform="translate(-191.96 -218.63)" />
    <path class="cls-22"
        d="M3083.58,1762.76v1.2a3.41,3.41,0,0,1-3.28,3.5H195.24A3.41,3.41,0,0,1,192,1764v-1.2a3.41,3.41,0,0,1,3.28-3.49H3080.3A3.41,3.41,0,0,1,3083.58,1762.76Z"
        transform="translate(-191.96 -218.63)" />
    <path class="cls-23"
        d="M1531.47,681.73s14.77,21.85,23.19,67.78c7.37,40.22,13.84,55.07,24.49,63.32s70,32.6,70,32.6l-4.44,10.4s-87-11.85-96.74-26.38-47-100.42-44.12-120.2S1531.47,681.73,1531.47,681.73Z"
        transform="translate(-191.96 -218.63)" />
    <path class="cls-24"
        d="M1744.45,1161.51c-.78,8.48,11,10.55,24.7,11.23s9.54,3.48,28.29,6.88,26.25-1.74,27.61-4.27c1.21-2.25-7.51-5.76-16.79-9.73l-3.51-1.52c-10.46-4.6-16.32-14-24.47-22.66-7.72-8.23-15-34.59-15-34.59l-25.47-5.44s7.16,23.72,9.64,33.85c1.46,6-.7,12.61-2.61,17.68A33.29,33.29,0,0,0,1744.45,1161.51Z"
        transform="translate(-191.96 -218.63)" />
    <path class="cls-25"
        d="M1769.15,1172.74c13.68.68,9.54,3.48,28.29,6.88s26.25-1.74,27.61-4.27c1.21-2.25-7.51-5.76-16.79-9.73l-.15.15a53.32,53.32,0,0,1-28.39.34c-12.4-3.36-24.39-10.77-32.93-13.17a33.29,33.29,0,0,0-2.34,8.57C1743.67,1170,1755.47,1172.06,1769.15,1172.74Z"
        transform="translate(-191.96 -218.63)" />
    <path class="cls-21"
        d="M1490.81,859.48s169.25-12.74,201.12,7.37,83,254.34,83,254.34-3.15,2.53-10.19,3.29c-6.56.71-21-3.14-21-3.14s-73.44-104.8-78.61-131.21-3.91-50-15.69-50.59-158.62,17.85-180.83-21.28-3.85-77.86-3.85-77.86Z"
        transform="translate(-191.96 -218.63)" />
    <path class="cls-24"
        d="M1679.68,1188.7c-.78,8.48,11,10.54,24.71,11.22s9.54,3.49,28.28,6.88,26.26-1.73,27.62-4.27c1.2-2.24-7.51-5.76-16.8-9.73l-3.51-1.52c-10.45-4.59-16.31-14-24.46-22.66-7.72-8.23-15-34.59-15-34.59l-25.47-5.44s7.15,23.73,9.63,33.85c1.46,6-.69,12.62-2.6,17.69A33.72,33.72,0,0,0,1679.68,1188.7Z"
        transform="translate(-191.96 -218.63)" />
    <path class="cls-25"
        d="M1704.39,1199.92c13.67.68,9.54,3.49,28.28,6.88s26.26-1.73,27.62-4.27c1.2-2.24-7.51-5.76-16.8-9.73l-.14.16a53.44,53.44,0,0,1-28.39.34c-12.4-3.37-24.39-10.78-32.93-13.17a33.72,33.72,0,0,0-2.35,8.57C1678.9,1197.18,1690.71,1199.24,1704.39,1199.92Z"
        transform="translate(-191.96 -218.63)" />
    <path class="cls-20"
        d="M1457.66,870s150.35,7.12,181.41,28.46,73,257.38,73,257.38-3.25,2.4-10.32,2.89c-6.58.45-20.84-4-20.84-4s-69.31-107.58-73.45-134.17-2-50.07-13.71-51.16-159.2,11.66-179.87-28.3S1457.66,870,1457.66,870Z"
        transform="translate(-191.96 -218.63)" />
    <path class="cls-26"
        d="M1525,547.13c-5.75-5.56-13.71-8-19.44-9.16a9.84,9.84,0,0,1,4.84-.94c-3.37-1.42-12.07.05-12.07.05-43.87-31.24-69.9,38.47-73.15,55.38s-9.2,41.11-29.87,62.07c-53,53.78,22.72,116,22.72,116,.32.32,38-80.34,75.85-93.3,10.87-9.59,18.93-29.38,19.55-30.94-5.53,15.91-10.65,24.32-14.45,28.82C1532.86,656.91,1540.22,561.84,1525,547.13Z"
        transform="translate(-191.96 -218.63)" />
    <path class="cls-24"
        d="M1451.34,656.57a169.33,169.33,0,0,1,28,0,89.63,89.63,0,0,1,24.3,6.1c13.25,5.53,11.86,29-16,24.65S1449.39,663.52,1451.34,656.57Z"
        transform="translate(-191.96 -218.63)" />
    <path class="cls-24"
        d="M1502.47,673.68c.16.08,4,20.18-14.24,19.38-12-.53-37.73-15-35.45-25.23,1.08-4.86,10.11-17.48,11.93-46.29l2.18.58,36.58,9.82s-1.62,11.61-2.38,22.59C1500.45,663.76,1500.42,672.55,1502.47,673.68Z"
        transform="translate(-191.96 -218.63)" />
    <path class="cls-23" d="M1503.47,631.94s-1.62,11.61-2.38,22.59c-20.71-2-30.41-21.62-34.2-32.41Z"
        transform="translate(-191.96 -218.63)" />
    <path class="cls-26"
        d="M1463.44,615.73s-6.28-19.39-5.15-34.29c.8-10.65,15.66-47.05,52.19-31.89a53.23,53.23,0,0,1,19.29,13.55c6.81,7.68,15.61,22.73-6.12,52.25l-6.3,10.24Z"
        transform="translate(-191.96 -218.63)" />
    <path class="cls-24"
        d="M1504.45,648.78s-47.85-11.43-40.27-41.12,6.51-51.16,37.38-45.12,33.89,18.89,33.77,29.41S1517.09,651,1504.45,648.78Z"
        transform="translate(-191.96 -218.63)" />
    <path class="cls-26"
        d="M1523.44,567.38s-22,31.48-43.31,31.49-28.65-7.58-28.65-7.58a58.53,58.53,0,0,0,27.13-28.74S1517.85,548.29,1523.44,567.38Z"
        transform="translate(-191.96 -218.63)" />
    <path class="cls-26"
        d="M1519.49,569.38s7.74,10.27,8.18,18.44-2.48,24,2.19,24.64c0,0,15.9-21.15,8.28-37.37C1530.07,557.89,1519.49,569.38,1519.49,569.38Z"
        transform="translate(-191.96 -218.63)" />
    <path class="cls-27"
        d="M1558.86,862c-4,4.76-16.39,6.22-29.66,8.4-10.44,1.72-21.41,3.88-29.21,8.47-17.71,10.39-75.58,45.54-92.54,43.94-6.57-.62-5.34-13.17-1.36-29.83,6.27-26.3,19.39-62.83,19.39-78.71,0-8.67,2.89-29.19,6.74-52.64.31-1.89.63-3.79,1-5.72,7.62-45.6,18.17-99.37,18.17-99.37s11.77,25.68,34.7,25.68,17.6-19.58,17.6-19.58,20.93,2.46,25.87,7.78,17.48,28.34,20,34.62c0,0,.51,8-19.27,11.79,0,0,4.82,21.68,5.39,36.13.42,10.68-7.29,44.1-9.5,64.88-.79,7.36-.89,13.14.3,15.76,1.53,3.36,6.48,6.7,12.11,10C1549.69,850.12,1563.59,856.38,1558.86,862Z"
        transform="translate(-191.96 -218.63)" />
    <path class="cls-28"
        d="M1538.51,843.61c12.69,21.64-34.42,28.15-42.22,32.73-17.71,10.4-71.88,48.1-88.84,46.5-6.57-.62-5.34-13.17-1.36-29.83,6.27-26.3,19.39-62.83,19.39-78.71,0-8.67,2.89-29.19,6.74-52.64l20.41-19.6s21.88,56.54,42.73,65.81a176,176,0,0,0,30.74,10c-.79,7.36-.89,13.14.3,15.76C1527.93,837,1532.88,840.33,1538.51,843.61Z"
        transform="translate(-191.96 -218.63)" />
    <path class="cls-24"
        d="M1445.07,673.49s-17.46-10.6-34.34,9.51,12,163.86,37,171.25c27.78,8.2,111.12,7.78,111.12,7.78l-3.48-10.11s-86.59-27.9-90.14-32.47S1453.94,675.81,1445.07,673.49Z"
        transform="translate(-191.96 -218.63)" />
    <path class="cls-27" d="M1451.34,656.57s-35.85,3.23-46.26,15-13.45,43.75-13.45,43.75,31.57,25.48,69.6,15.59Z"
        transform="translate(-191.96 -218.63)" />
    <path class="cls-26" d="M1673.85,810.31l3.42-31.44-44.47,58.59s18.62,9.27,19.71,7.5S1673.85,810.31,1673.85,810.31Z"
        transform="translate(-191.96 -218.63)" />
    <polygon class="cls-27" points="1415.35 591.68 1374.27 654.4 1443.26 654.4 1481.89 591.68 1415.35 591.68" />
    <polygon class="cls-29" points="1481.89 591.68 1485.12 560.54 1461.88 589.62 1481.89 591.68" />
    <polygon class="cls-29" points="1376.38 651.18 1373.23 648.93 1414.05 588.27 1415.35 591.68 1376.38 651.18" />
    <polygon class="cls-13" points="1414.05 588.27 1479.04 590.1 1481.89 591.68 1415.35 591.68 1414.05 588.27" />
    <path class="cls-24"
        d="M1592.44,860.58a23.23,23.23,0,0,0-4.43,0c5-2.31,10-4.82,10-4.82s-2.22-2.28-10.75.75a6.51,6.51,0,0,1-2.88.32l12-5.38c-2.13-1.92-7.86-.39-12.32,1.25a9.85,9.85,0,0,1-9.42-1.44l-.13-.1.59-.07c7-1,8.75-5,6.82-4.56s-13.64,1.31-13.64,1.31c-5.29-.3-15.77,3.74-15.77,3.74l5.86,10.81s16.85,3.14,21.24,1.78c.35-.11.77-.26,1.24-.44h0l15.32-1S1595.81,861,1592.44,860.58Z"
        transform="translate(-191.96 -218.63)" />
    <g data-name="girl 2" id="girl_2">
        <path class="cls-30"
            d="M2185,1283s88.42,38.52,104.46,37.82,115-30.12,115-30.12l-2.52,17s-76.32,43.9-103,46.39c-26.27,2.45-116.09-23.58-124.76-29.07S2159.75,1288.53,2185,1283Z"
            transform="translate(-191.96 -218.63)" />
        <path class="cls-31"
            d="M2171.67,1141.26s-32.62-6.2-48.86,5.67c-29.43,21.49-31,95.57-42,106.61s-37.61,6.32-40,63.43,10.59,61.88-4.84,87.37,6.53,51,6.53,51-9-14.07-5.14-24.23c0,0,3.74,22.42,18,27.67s16.35,9.11,18.62,16.81c0,0,121.49-62.25,121.62-106.4s23.91-87.9,12.24-107c0,0,5.2,8.19,5.83,17.29,0,0,7-13.42-5.13-25.91s14.24-38.36,10.33-68.31C2216.15,1164.68,2201.73,1142.15,2171.67,1141.26Z"
            transform="translate(-191.96 -218.63)" />
        <path class="cls-24"
            d="M2195.7,1325c-7.77,5.39-17.5,9.83-29.73,12.65-45.81,10.59-63.37-28.14-70-54.72a39.57,39.57,0,0,1,15.53-4.77c3.31-.39,6.79-.65,9.68-.79,5.14-3.94,12.81-20.07,14.5-45.11l2.16.58,36.1,9.88s-1.65,11.48-2.46,22.33c-.63,8.49-.72,16.6.88,18.59,2.82.61,4.51,1,4.51,1l0,0A232.77,232.77,0,0,1,2195.7,1325Z"
            transform="translate(-191.96 -218.63)" />
        <path class="cls-30" d="M2174,1242.76s-1.66,11.47-2.47,22.33c-20.45-2-30-21.53-33.64-32.21Z"
            transform="translate(-191.96 -218.63)" />
        <path class="cls-24"
            d="M2180.08,1253.54s-48.55-2.68-46.42-32.9-2.69-50.9,28.4-50.47,36.29,12.39,38,22.64S2192.77,1253.45,2180.08,1253.54Z"
            transform="translate(-191.96 -218.63)" />
        <path class="cls-31"
            d="M2199.86,1175.91c-6.85-9.62-12.66-8-16-5.53-25.46-16.48-44.09,3.85-44.09,3.85a57.88,57.88,0,0,1-21.32,32.74s8.45,6.09,29.2,2.31c6.34-1.15,12.22-5.18,17.33-10.2a113.38,113.38,0,0,1-21.18,22.38c25.15-9.5,37.35-42.66,38.58-46.17,2.77,2.87,8.19,9.07,9.57,14.86,1.87,7.86,9.91,20.16,14.57,19.95C2206.49,1210.1,2210.12,1190.35,2199.86,1175.91Z"
            transform="translate(-191.96 -218.63)" />
        <path class="cls-32"
            d="M2082.17,1423.76c-4.38-22.42-18.68-112-4.38-140.8,5.13-10.35,25.28-11.29,47.39-10.38,6.88,4.44,33.09,21.23,43.86,19.13l.6-.14c5.07-1.27,7-4.83,2.75-7.9a96.27,96.27,0,0,1,24.55,1.5c7.68,1.45,28.39,12.17,28.39,12.17s-10.43,18.84-25.81,25.35c2.62,23.39-1.27,33.72-25.55,87.76-20.51,45.68,2.77,86.8,2.77,86.8s-120.74,97.08-121.41,47.65C2054.83,1507.69,2087.78,1452.41,2082.17,1423.76Z"
            transform="translate(-191.96 -218.63)" />
        <path class="cls-33"
            d="M2182.73,1602.81a22.47,22.47,0,0,0,16.15-9.83l1.86-2.81c13.75-20.81,19.09-84.52,50-152.4,7.53-16.53,34.55-19.5,41.92-38.18,0,0,18.14-60.55-34.71-62.34s-141.57,168.48-143,186.33C2113.63,1540.88,2080,1614.4,2182.73,1602.81Z"
            transform="translate(-191.96 -218.63)" />
        <path class="cls-31"
            d="M2392.82,1601.42h-75.23s-2.82-12,2.12-20.17c4.38-7.22,2.7-11.34-.54-17.32a29.14,29.14,0,0,0,12.67,2.39c3.75-.22,7.72-1.92,11.19-3.94,3.24,3.7,17.11,19.41,21.44,22.52C2369.38,1588.44,2391.31,1587.18,2392.82,1601.42Z"
            transform="translate(-191.96 -218.63)" />
        <path class="cls-34"
            d="M2090.1,1306.44s-9.79,89.09,53.72,107.76,81.53-82,30.26-89.21S2090.1,1306.44,2090.1,1306.44Z"
            transform="translate(-191.96 -218.63)" />
        <path class="cls-21"
            d="M2294.39,1354.76c4.54,34,22.23,141.16,53.43,193.46,10.07,16.86-25.35,26.32-25.54,26.27-4.75-1.25-12.66-8.82-16.3-12.11-25.34-22.83-76.77-87.49-76.77-139.32,0-25.28-.45-73.55,17.93-85.82C2258.46,1329.68,2292.6,1341.27,2294.39,1354.76Z"
            transform="translate(-191.96 -218.63)" />
        <path class="cls-20"
            d="M2137.86,1601.42s2.79-3.88,7.65-11.25c5.79-8.76,12.19-26,20-48.12,8.16-23.21,17.84-51.76,29.94-81.47,3.73-9.17,7.7-18.45,11.92-27.72,7.53-16.52,28.24-14.24,35.61-32.92,0,0,28.75-64.76-24.11-66.55s-153.3,173.24-159.07,190.19C2053.44,1542.14,2022.61,1619.2,2137.86,1601.42Z"
            transform="translate(-191.96 -218.63)" />
        <path class="cls-16"
            d="M2337.59,1601.42h-75.23s-2.82-12,2.12-20.17c4.38-7.22,2.7-11.34-.54-17.32a29.15,29.15,0,0,0,12.68,2.39c3.74-.22,7.71-1.92,11.18-3.94,3.24,3.7,17.11,19.41,21.44,22.52C2314.16,1588.44,2336.08,1587.18,2337.59,1601.42Z"
            transform="translate(-191.96 -218.63)" />
        <path class="cls-21"
            d="M2165.47,1542.05c8.16-23.21,17.84-51.76,29.94-81.47-3.16-22.51-10-42.2-21.44-50.13C2174,1410.45,2146.17,1496.58,2165.47,1542.05Z"
            transform="translate(-191.96 -218.63)" />
        <path class="cls-20"
            d="M2250.48,1352.35c4.53,34,10.91,143.57,42.12,195.87,10.06,16.86-25.35,26.32-25.55,26.27-4.74-1.25-12.66-8.82-16.3-12.11-25.34-22.83-76.77-87.49-76.77-139.32,0-25.28,29.66-71.52,48-83.79C2233.34,1331.71,2248.68,1338.86,2250.48,1352.35Z"
            transform="translate(-191.96 -218.63)" />
        <path class="cls-32"
            d="M2189.18,1236.16s-4.6-1.82-17.51-.77c0,0,.68,5,10.21,5.54C2187.28,1241.21,2189.18,1236.16,2189.18,1236.16Z"
            transform="translate(-191.96 -218.63)" />
        <polygon class="cls-26"
            points="2221.83 1036.44 2206.23 1008.3 2172.49 1102.46 2192.4 1123.83 2221.83 1036.44" />
        <polygon class="cls-27"
            points="2140.39 1052.92 2109.02 1142.53 2192.4 1123.83 2221.83 1036.44 2140.39 1052.92" />
        <polygon class="cls-29"
            points="2110.68 1138.01 2109.22 1135.46 2138.9 1050.66 2140.39 1052.92 2110.68 1138.01" />
        <polygon class="cls-13"
            points="2138.9 1050.66 2217.95 1035.28 2221.83 1036.44 2140.39 1052.92 2138.9 1050.66" />
        <polygon class="cls-29"
            points="2221.83 1036.44 2204.97 1009.67 2194.21 1039.89 2217.95 1035.28 2221.83 1036.44" />
        <path class="cls-24"
            d="M2356.42,1284.53c-2.71-.52-8.53-2.71-14.42-4.33,1.76-1.37,3.72-3,4.26-4.77,1-3.32,1.75-4.38-1.75-3.33s-15.76,6.67-15.76,6.67l0,0c-7,2-13.38,11.87-13.38,11.87s-86.2,30.3-96.58,30.82c-16,.81-122.83-38.52-122.83-38.52-25.2,5.57-19.54,36.53-10.87,42s85.51,33.44,131,34c23.06.27,107-53.66,107-53.66s9.8-4.48,17.51-3.08,25.57,0,29.42-6.31S2361,1285.41,2356.42,1284.53Z"
            transform="translate(-191.96 -218.63)" />
        <path class="cls-32"
            d="M2151,1302.36s-9.55,30.23-42.35,37.11c0,0-54.17-16.69-27.2-53.59C2081.47,1285.88,2108.14,1266.07,2151,1302.36Z"
            transform="translate(-191.96 -218.63)" />
        <path class="cls-24"
            d="M2412.39,1286.81h0a8.07,8.07,0,0,0-.29-2.45s-7.72-12.23-10.25-12.73c-7.71-1.52-7.71,8.63-6.07,15.18a26.44,26.44,0,0,0,6.38,11.3h0l-.3,9.56C2414.86,1300.52,2412.39,1286.81,2412.39,1286.81Z"
            transform="translate(-191.96 -218.63)" />
    </g>
    <path class="cls-20"
        d="M1730,1435.73s-13.73,8.39-18.28,22.17a28.09,28.09,0,0,0-1.43,7.71c-.75,18.32,0,59.77,0,59.77l-40.54-20.73-40.43,20.73V1469.2c0-10.62,3.47-21,9.91-27.72,3.12-3.28,6.91-5.75,11.2-5.75Z"
        transform="translate(-191.96 -218.63)" />
    <path class="cls-21" d="M1730,1435.73s-13.73,8.39-18.28,22.17l-81.25.82s3.19-19.73,20-23Z"
        transform="translate(-191.96 -218.63)" />
    <path class="cls-20" d="M931.93,1167.57s8.61,37.37,33.71,37.37c21.52,0,51-48.64,51-48.64Z"
        transform="translate(-191.96 -218.63)" />
    <path class="cls-16"
        d="M1218.7,1722.79l-14.4,7.64s-77.88-82.58-96.6-161.82c-3.34-14.15-4.69-28.1-3.26-41.34,0,0-1.13-3.59-3.12-9.94-.08-.27-.17-.56-.26-.84-.87-2.79-1.91-6.06-3.06-9.77-3.76-12-8.93-28.36-14.81-47-13.56-42.93-44.56-139.75-57.81-180l95.22-34.45s10.81,24.66,26.35,91.69c2.4,8.75,4.8,18.43,7,29,2.54,11.94,4.91,25,6.89,39.1a598.87,598.87,0,0,1,5.7,80.26q.09,18-1,37.26c-.52,9.41.88,22,3.5,36.22C1181.12,1623.94,1218.7,1722.79,1218.7,1722.79Z"
        transform="translate(-191.96 -218.63)" />
    <path class="cls-31"
        d="M1270.83,1759.27h-77S1191,1747,1196,1738.64c4.47-7.4,2.76-11.61-.55-17.72a30,30,0,0,0,13,2.44c3.84-.22,7.89-2,11.45-4,3.31,3.78,17.5,19.86,21.93,23C1246.85,1746,1269.28,1744.7,1270.83,1759.27Z"
        transform="translate(-191.96 -218.63)" />
    <path class="cls-31"
        d="M1160.87,1405l-59.81,111.5c-.87-2.79-1.91-6.06-3.06-9.77-3.76-12-8.93-28.36-14.81-47-13.56-42.93-44.56-139.75-57.81-180l95.22-34.45s10.81,24.66,26.35,91.69c2.4,8.75,4.8,18.43,7,29C1156.52,1377.83,1158.89,1390.88,1160.87,1405Z"
        transform="translate(-191.96 -218.63)" />
    <path class="cls-31"
        d="M1023.83,1735.17s-5.33,13.08-.31,24.1h41.87s.87-9.94-14.32-21.47C1039.56,1729.07,1023.83,1735.17,1023.83,1735.17Z"
        transform="translate(-191.96 -218.63)" />
    <path class="cls-28"
        d="M1069.4,884c0-2.08,1.1-24.56,35.24-26.55,0,0-16.75,2.41-19.48,9.86,0,0,11.22-9.4,20.61-6.69s15.26,18.91,15.44,24.28-4.57,22.8-10.45,24.41a17.94,17.94,0,0,1-7.16.19,79.87,79.87,0,0,1,4.78,8.08c14.32,27.66,2,60.25-9.65,57.51-7.45-1.76-12,11.15-12,11.15l-71.66-61.62S1040.2,869.34,1069.4,884Z"
        transform="translate(-191.96 -218.63)" />
    <path class="cls-24"
        d="M1024.36,1071.28c7.94,5.51,17.9,10,30.41,12.94,46.88,10.83,64.84-28.79,71.59-56a40.35,40.35,0,0,0-15.88-4.88c-3.39-.4-7-.66-9.91-.81-5.26-4-13.1-20.53-14.84-46.15l-2.2.59-37,10.11s1.69,11.75,2.52,22.85c.64,8.68.74,17-.9,19-2.88.62-4.61,1-4.61,1l0,0A237.19,237.19,0,0,0,1024.36,1071.28Z"
        transform="translate(-191.96 -218.63)" />
    <path class="cls-30" d="M1046.58,987.1s1.7,11.73,2.52,22.84c20.93-2.09,30.65-22,34.43-33Z"
        transform="translate(-191.96 -218.63)" />
    <path class="cls-24"
        d="M1046.15,1004.72s48.19-12.38,40-42.27-7.46-51.63-38.58-45-33.94,19.67-33.64,30.32S1033.4,1007.17,1046.15,1004.72Z"
        transform="translate(-191.96 -218.63)" />
    <path class="cls-28"
        d="M1010.81,930.78c5-11,11.09-10.59,15-8.75,22.27-21.62,45-4.95,45-4.95,9.1,20.56,27.93,28.6,27.93,28.6s-7.26,7.8-28.84,8.16c-6.59.1-13.29-2.76-19.42-6.79a115.85,115.85,0,0,0,25.72,18.24c-27.14-4.52-46-35.35-47.94-38.63-2.21,3.43-6.41,10.73-6.63,16.82-.3,8.26,2.92,24.22-1.79,24.94C1019.83,968.42,1003.39,947.31,1010.81,930.78Z"
        transform="translate(-191.96 -218.63)" />
    <path class="cls-24"
        d="M1032.29,1027.5s80.93-19.65,116.13,9.38l-17.59,245.28-158.29-38.24s4.45-15.52,34.81-56.79S1024.5,1085.32,1032.29,1027.5Z"
        transform="translate(-191.96 -218.63)" />
    <path class="cls-16"
        d="M1079.47,1254.86l-.26,2.41c-.07.68-.16,1.51-.26,2.47-.68,6.36-2,18.55-3.64,34.42-4.34,41.59-11.15,108.41-15.8,161.14-3.63,41.24-5.94,73.87-4.69,79.11,3.74,15.77,0,204.27,0,204.27-13.46,6.45-33.85,0-33.85,0s-35.84-169.87-30.82-193.48a81.34,81.34,0,0,0-3.36-43.76C959,1371.86,962,1300.05,967.54,1265.67a146.27,146.27,0,0,1,4.76-21,42.14,42.14,0,0,1,1.91-5.16C1035.58,1223,1079.47,1254.86,1079.47,1254.86Z"
        transform="translate(-191.96 -218.63)" />
    <path class="cls-20"
        d="M1159.33,1106.84c-3.91,29.51-19.54,65.62-25.12,85.05,0,0,9.33,67.48.42,86a8.21,8.21,0,0,1-3.8,4.26c-33,14.38-161.54.41-167-41.05-2-15.07,49-68.06,51.93-74.49,1.23-2.66,2.55-11.28-3.43-29.15-8.46,26.1-55.18,18.59-55.18,18.59,5.49-9.38,19.15-74.29,34.4-103.59,11.47-22,42.09-25.21,42.09-25.21s12.74,20.21,43.56,17.34,36.45-21.73,36.45-21.73,27.34,3.64,35.76,10.43C1150.9,1034.48,1164.45,1068.18,1159.33,1106.84Z"
        transform="translate(-191.96 -218.63)" />
    <path class="cls-21"
        d="M1134.21,1191.89s9.33,67.48.42,86c-24-12.07-55.39-38.12-45.85-78.83,13.86-59.15,70.55-92.23,70.55-92.23C1155.42,1136.35,1139.79,1172.46,1134.21,1191.89Z"
        transform="translate(-191.96 -218.63)" />
    <polygon class="cls-27" points="841.87 893.46 896.98 981.88 803.21 981.88 750.7 895.38 841.87 893.46" />
    <polygon class="cls-29" points="894.12 977.44 895.07 974.35 842.91 890.68 841.87 893.46 894.12 977.44" />
    <polygon class="cls-13" points="842.91 890.68 754.57 893.2 750.7 895.38 841.87 893.46 842.91 890.68" />
    <polygon class="cls-26" points="750.7 895.38 701.14 868.55 758.91 959.27 803.21 981.88 750.7 895.38" />
    <path class="cls-24"
        d="M1204.91,1176c-5.3,2.42-18.93,18.47-23.79,20.1-21.87,7.32-114.93-12.15-114.93-12.15l2.88-16.3s91.34,2.42,101.38-.26c1.89-.51,11.76-15.95,15.56-18.17Z"
        transform="translate(-191.96 -218.63)" />
    <path class="cls-24"
        d="M1069.08,1167.61s-11-9-18.46-6.93-18.4,11.44-22.46,13.67-15.12,10.2-9.52,15,23,.68,29.94-3,17.61-2.43,17.61-2.43Z"
        transform="translate(-191.96 -218.63)" />
    <path class="cls-24"
        d="M1052.73,1160.38s-13.39-1.59-17-1.52-2.66.88-.64,3.71,9,3.93,9.31,4.92S1052.73,1160.38,1052.73,1160.38Z"
        transform="translate(-191.96 -218.63)" />
    <path class="cls-20"
        d="M1113.68,1022.87s39.7,4.71,50.63,21.73c13.82,21.53,46.44,107.25,45.39,128.85,0,0-23.85,40.59-105.62,34.09,0,0-8.51-30,8.69-40,0,0,42-7.47,46.84-11.73l-14-58.31Z"
        transform="translate(-191.96 -218.63)" />
    <path class="cls-24"
        d="M955.35,1146.33c-1.23-5-12.13-1.88-15.81,1a15,15,0,0,0-2.79,3.28c-.12-.83-.22-1.64-.27-2.26-.21-2.35-2.94-6.56-3.62-3.41s-1.8,16.39-1.8,16.39c-.13,10.67,6.72,15.06,11.12,11.59S956.59,1151.33,955.35,1146.33Z"
        transform="translate(-191.96 -218.63)" />
</svg>